<?xml version="1.0" encoding="UTF-8" standalone="no"?>
<!-- Created with Inkscape (http://www.inkscape.org/) -->
<svg
   xmlns:svg="http://www.w3.org/2000/svg"
   xmlns="http://www.w3.org/2000/svg"
   xmlns:inkscape="http://www.inkscape.org/namespaces/inkscape"
   version="1.0"
   width="709"
   height="533"
   id="svg2">
  <defs
     id="defs5">
    <inkscape:perspective
       id="perspective9" />
  </defs>
  <g
     transform="translate(0,10.426471)"
     id="g3217">
    <path
       d="M 555.20952,134.1875 L 651.65442,139.40073 L 679.02392,123.76103 L 586.48902,100.30147 L 555.20952,134.1875 z"
       id="path2391"
       style="fill:#ff0000;fill-rule:evenodd;stroke:#000000;stroke-width:1px;stroke-linecap:butt;stroke-linejoin:miter;stroke-opacity:1" />
    <path
       d="M 585.18562,100.30147 L 603.43202,18.193018 L 590.39892,27.316178 L 560.42282,78.145218 L 546.08642,57.292278 L 518.71692,74.235298 L 521.32352,110.72794 L 547.38972,114.63787 L 585.18562,100.30147 z"
       id="path2393"
       style="fill:#ff0000;fill-rule:evenodd;stroke:#000000;stroke-width:1px;stroke-linecap:butt;stroke-linejoin:miter;stroke-opacity:1" />
    <path
       d="M 286.72794,234.54229 L 285.42463,78.145228 L 321.91728,59.898898 L 384.47612,182.40993 L 286.72794,234.54229 z"
       id="path2395"
       style="fill:#d00000;fill-opacity:1;fill-rule:evenodd;stroke:#000000;stroke-width:1px;stroke-linecap:butt;stroke-linejoin:miter;stroke-opacity:1" />
    <path
       d="M 341.46691,281.4614 L 664.68752,308.83089 L 701.18012,285.37133 L 443.12502,220.20589 L 341.46691,281.4614 z"
       id="path2398"
       style="fill:#ff0000;fill-rule:evenodd;stroke:#000000;stroke-width:1px;stroke-linecap:butt;stroke-linejoin:miter;stroke-opacity:1" />
    <path
       d="M 516.76192,111.3796 L 455.50642,141.3557 L 157.04871,305.57261 L 145.31893,321.21232 L 136.19577,344.67188 L 137.49908,359.00828 L 159.65533,368.13144 L 189.63143,369.43475 L 491.99902,193.48806 L 588.44392,102.25644 L 516.76192,111.3796 z"
       id="path2389"
       style="fill:#0000ff;fill-rule:evenodd;stroke:#000000;stroke-width:1px;stroke-linecap:butt;stroke-linejoin:miter;stroke-opacity:1" />
    <path
       d="M 561.72612,74.235298 L 544.78312,106.81802 L 544.78312,106.81802 L 544.78312,106.81802"
       id="path2401"
       style="fill:none;fill-rule:evenodd;stroke:#000000;stroke-width:1px;stroke-linecap:butt;stroke-linejoin:miter;stroke-opacity:1" />
    <path
       d="M 521.96942,109.54916 C 521.72852,106.67174 519.39632,74.627528 519.42462,74.584038 C 519.44632,74.550848 525.36872,70.872758 532.58552,66.410478 C 542.86622,60.053748 545.82332,58.420758 546.24432,58.867788 C 546.53972,59.181588 549.58092,63.515908 553.00232,68.499608 L 559.22302,77.560898 L 551.83212,91.769468 C 547.76702,99.584188 544.43712,106.23433 544.43232,106.54756 C 544.42182,107.22738 544.14492,107.27763 532.32532,108.74532 C 521.96822,110.03141 522.00962,110.0282 521.96942,109.54916 z"
       id="path3173"
       style="opacity:1;fill:#d00000;fill-opacity:1;fill-rule:evenodd;stroke:#0d0f11;stroke-width:0.36863142;stroke-linecap:round;stroke-linejoin:miter;stroke-miterlimit:4;stroke-dasharray:none;stroke-opacity:1" />
    <path
       d="M 980.08825,441.11673 A 9.1231613,11.078125 0 1 1 961.84193,441.11673 A 9.1231613,11.078125 0 1 1 980.08825,441.11673 z"
       transform="matrix(1.209987,0,0,0.9964599,-828.82661,-197.84463)"
       id="path3175"
       style="opacity:1;fill:#ffff00;fill-opacity:1;fill-rule:evenodd;stroke:#0d0f11;stroke-width:0.80000001;stroke-linecap:round;stroke-linejoin:miter;stroke-miterlimit:4;stroke-dasharray:none;stroke-opacity:1" />
    <path
       d="M 344.07353,242.36213 C 23.459561,426.12868 23.459561,426.12868 23.459561,426.12868"
       id="path3177"
       style="fill:none;fill-rule:evenodd;stroke:#000000;stroke-width:2.67579699;stroke-linecap:butt;stroke-linejoin:miter;stroke-miterlimit:4;stroke-dasharray:none;stroke-opacity:1" />
    <path
       d="M 342.77022,243.66545 C 102.9614,170.68015 102.9614,170.68015 102.9614,170.68015"
       id="path3181"
       style="fill:none;fill-rule:evenodd;stroke:#000000;stroke-width:2.89100003;stroke-linecap:butt;stroke-linejoin:miter;stroke-miterlimit:4;stroke-dasharray:none;stroke-opacity:1" />
    <path
       d="M 344.07353,242.36213 C 345.37684,456.10478 345.37684,456.10478 345.37684,456.10478"
       id="path3183"
       style="fill:none;fill-rule:evenodd;stroke:#000000;stroke-width:2.89100003;stroke-linecap:butt;stroke-linejoin:miter;stroke-miterlimit:4;stroke-dasharray:none;stroke-opacity:1" />
    <text
       x="315.81613"
       y="455.11642"
       transform="scale(0.9617097,1.0398148)"
       id="text3185"
       xml:space="preserve"
       style="font-size:22.96318436px;font-style:normal;font-weight:normal;fill:#000000;fill-opacity:1;stroke:none;stroke-width:1px;stroke-linecap:butt;stroke-linejoin:miter;stroke-opacity:1;font-family:Bitstream Vera Sans"><tspan
         x="315.81613"
         y="455.11642"
         id="tspan3187">Yaw Axis</tspan></text>
    <text
       x="7.9257369"
       y="442.90436"
       transform="scale(0.9762783,1.0242981)"
       id="text3189"
       xml:space="preserve"
       style="font-size:25.05994225px;font-style:normal;font-weight:normal;fill:#000000;fill-opacity:1;stroke:none;stroke-width:1px;stroke-linecap:butt;stroke-linejoin:miter;stroke-opacity:1;font-family:Bitstream Vera Sans"><tspan
         x="7.9257369"
         y="442.90436"
         id="tspan3191">Roll Axis</tspan></text>
    <text
       x="21.954201"
       y="160.44843"
       transform="scale(1.0001673,0.9998327)"
       id="text3193"
       xml:space="preserve"
       style="font-size:25.67314339px;font-style:normal;font-weight:normal;fill:#000000;fill-opacity:1;stroke:none;stroke-width:1px;stroke-linecap:butt;stroke-linejoin:miter;stroke-opacity:1;font-family:Bitstream Vera Sans"><tspan
         x="21.954201"
         y="160.44843"
         id="tspan3195">Pitch Axis</tspan></text>
    <g
       transform="matrix(0.5844794,-2.1688572e-2,2.559132e-2,0.6896543,192.6363,-61.263042)"
       id="g3201">
      <path
         d="M 465.28124,703.73346 A 72.333641,32.582722 0 1 1 355.36445,675.89408"
         transform="matrix(0.8937721,0,0,0.9182214,-123.77822,32.981407)"
         id="path3197"
         style="opacity:1;fill:none;fill-opacity:1;fill-rule:evenodd;stroke:#ff631a;stroke-width:2.89100003;stroke-linecap:round;stroke-linejoin:miter;stroke-miterlimit:4;stroke-dasharray:none;stroke-opacity:1" />
      <path
         d="M 192.28309,670.45404 L 192.28309,670.45404 C 192.28309,670.45404 192.28309,670.45404 194.88971,652.20772 C 176.64338,648.29779 176.64338,648.29779 176.64338,648.29779"
         id="path3199"
         style="fill:none;fill-rule:evenodd;stroke:#e34343;stroke-width:1.89999998;stroke-linecap:butt;stroke-linejoin:miter;stroke-miterlimit:4;stroke-dasharray:none;stroke-opacity:1" />
    </g>
    <g
       transform="matrix(0.4957082,-4.0693302e-2,3.1832352e-2,0.8822763,-58.101989,-197.03078)"
       id="g3205">
      <path
         d="M 465.28124,703.73346 A 72.333641,32.582722 0 1 1 355.36445,675.89408"
         transform="matrix(0.8937721,0,0,0.9182214,-123.77822,32.981407)"
         id="path3207"
         style="opacity:1;fill:none;fill-opacity:1;fill-rule:evenodd;stroke:#ff631a;stroke-width:2.89100003;stroke-linecap:round;stroke-linejoin:miter;stroke-miterlimit:4;stroke-dasharray:none;stroke-opacity:1" />
      <path
         d="M 192.28309,670.45404 L 192.28309,670.45404 C 192.28309,670.45404 192.28309,670.45404 194.88971,652.20772 C 176.64338,648.29779 176.64338,648.29779 176.64338,648.29779"
         id="path3209"
         style="fill:none;fill-rule:evenodd;stroke:#e34343;stroke-width:1.89999998;stroke-linecap:butt;stroke-linejoin:miter;stroke-miterlimit:4;stroke-dasharray:none;stroke-opacity:1" />
    </g>
    <g
       transform="matrix(0.1628024,-0.4699765,0.8200969,0.3269033,-407.06182,81.287188)"
       id="g3211">
      <path
         d="M 465.28124,703.73346 A 72.333641,32.582722 0 1 1 355.36445,675.89408"
         transform="matrix(0.8937721,0,0,0.9182214,-123.77822,32.981407)"
         id="path3213"
         style="opacity:1;fill:none;fill-opacity:1;fill-rule:evenodd;stroke:#ff631a;stroke-width:2.89100003;stroke-linecap:round;stroke-linejoin:miter;stroke-miterlimit:4;stroke-dasharray:none;stroke-opacity:1" />
      <path
         d="M 192.28309,670.45404 L 192.28309,670.45404 C 192.28309,670.45404 192.28309,670.45404 194.88971,652.20772 C 176.64338,648.29779 176.64338,648.29779 176.64338,648.29779"
         id="path3215"
         style="fill:none;fill-rule:evenodd;stroke:#e34343;stroke-width:1.89999998;stroke-linecap:butt;stroke-linejoin:miter;stroke-miterlimit:4;stroke-dasharray:none;stroke-opacity:1" />
    </g>
  </g>
</svg>
